<svg xmlns="http://www.w3.org/2000/svg" width="400" height="500" viewBox="0 0 400 500"><rect width="400" height="500" fill="#f8f9fa"/><rect x="40" y="90" width="320" height="320" fill="none" stroke="#333" stroke-width="2"/><rect x="0" y="0" width="106.66666666666667" height="320" fill="#e3f2fd" stroke="#666" stroke-width="1" opacity="0.7"/><path d="M 53.333333333333336 160 L 43.733333333333334 155.2 M 53.333333333333336 160 L 43.733333333333334 164.8" stroke="#2196F3" stroke-width="2" fill="none"/><circle cx="53.333333333333336" cy="160" r="3.1999999999999997" fill="#2196F3" opacity="0.5"/><text x="53.333333333333336" y="160" text-anchor="middle" font-family="Arial" font-size="10" fill="#333">leaf1</text><rect x="106.66666666666667" y="0" width="106.66666666666667" height="320" fill="#e3f2fd" stroke="#666" stroke-width="1" opacity="0.7"/><path d="M 160 160 L 169.6 155.2 M 160 160 L 169.6 164.8" stroke="#2196F3" stroke-width="2" fill="none"/><circle cx="160" cy="160" r="3.1999999999999997" fill="#2196F3" opacity="0.5"/><text x="160" y="160" text-anchor="middle" font-family="Arial" font-size="10" fill="#333">leaf2</text><rect x="213.33333333333334" y="0" width="106.66666666666667" height="320" fill="#e3f2fd" stroke="#666" stroke-width="1" opacity="0.7"/><path d="M 266.6666666666667 160 L 276.2666666666667 155.2 M 266.6666666666667 160 L 276.2666666666667 164.8" stroke="#2196F3" stroke-width="2" fill="none"/><circle cx="266.6666666666667" cy="160" r="3.1999999999999997" fill="#2196F3" opacity="0.5"/><text x="266.6666666666667" y="160" text-anchor="middle" font-family="Arial" font-size="10" fill="#333">leaf3</text><text x="200" y="490" text-anchor="middle" font-family="Arial" font-size="14" font-weight="bold" fill="#333">D29</text></svg>