<svg xmlns="http://www.w3.org/2000/svg" width="400" height="500" viewBox="0 0 400 500"><rect width="400" height="500" fill="#f8f9fa"/><rect x="40" y="122" width="320" height="256" fill="none" stroke="#333" stroke-width="2"/><rect x="0" y="0" width="80" height="256" fill="#e3f2fd" stroke="#666" stroke-width="1" opacity="0.7"/><path d="M 40 128 L 32.8 124.4 M 40 128 L 32.8 131.6" stroke="#2196F3" stroke-width="2" fill="none"/><circle cx="40" cy="128" r="2.4" fill="#2196F3" opacity="0.5"/><text x="40" y="128" text-anchor="middle" font-family="Arial" font-size="10" fill="#333">leaf1</text><rect x="80" y="0" width="80" height="256" fill="#e3f2fd" stroke="#666" stroke-width="1" opacity="0.7"/><path d="M 120 128 L 112.8 124.4 M 120 128 L 112.8 131.6" stroke="#2196F3" stroke-width="2" fill="none"/><circle cx="120" cy="128" r="2.4" fill="#2196F3" opacity="0.5"/><text x="120" y="128" text-anchor="middle" font-family="Arial" font-size="10" fill="#333">leaf2</text><rect x="160" y="0" width="80" height="256" fill="#e3f2fd" stroke="#666" stroke-width="1" opacity="0.7"/><path d="M 200 128 L 207.2 124.4 M 200 128 L 207.2 131.6" stroke="#2196F3" stroke-width="2" fill="none"/><circle cx="200" cy="128" r="2.4" fill="#2196F3" opacity="0.5"/><text x="200" y="128" text-anchor="middle" font-family="Arial" font-size="10" fill="#333">leaf3</text><rect x="240" y="0" width="80" height="256" fill="#e3f2fd" stroke="#666" stroke-width="1" opacity="0.7"/><path d="M 280 128 L 287.2 124.4 M 280 128 L 287.2 131.6" stroke="#2196F3" stroke-width="2" fill="none"/><circle cx="280" cy="128" r="2.4" fill="#2196F3" opacity="0.5"/><text x="280" y="128" text-anchor="middle" font-family="Arial" font-size="10" fill="#333">leaf4</text><text x="200" y="490" text-anchor="middle" font-family="Arial" font-size="14" font-weight="bold" fill="#333">D4</text></svg>