<svg xmlns="http://www.w3.org/2000/svg" width="400" height="500" viewBox="0 0 400 500"><rect width="400" height="500" fill="#f8f9fa"/><rect x="40" y="170" width="320" height="160" fill="none" stroke="#333" stroke-width="2"/><rect x="0" y="0" width="80" height="160" fill="#fff3e0" stroke="#666" stroke-width="1" opacity="0.7"/><path d="M 40 80 L 32.8 76.4 M 40 80 L 32.8 83.6" stroke="#2196F3" stroke-width="2" fill="none"/><circle cx="40" cy="80" r="2.4" fill="#2196F3" opacity="0.5"/><text x="40" y="80" text-anchor="middle" font-family="Arial" font-size="10" fill="#333">w1</text><rect x="80" y="0" width="80" height="160" fill="#fff3e0" stroke="#666" stroke-width="1" opacity="0.7"/><path d="M 120 80 L 112.8 76.4 M 120 80 L 112.8 83.6" stroke="#2196F3" stroke-width="2" fill="none"/><circle cx="120" cy="80" r="2.4" fill="#2196F3" opacity="0.5"/><text x="120" y="80" text-anchor="middle" font-family="Arial" font-size="10" fill="#333">w2</text><rect x="160" y="0" width="80" height="160" fill="#fff3e0" stroke="#666" stroke-width="1" opacity="0.7"/><path d="M 200 80 L 207.2 76.4 M 200 80 L 207.2 83.6" stroke="#2196F3" stroke-width="2" fill="none"/><circle cx="200" cy="80" r="2.4" fill="#2196F3" opacity="0.5"/><text x="200" y="80" text-anchor="middle" font-family="Arial" font-size="10" fill="#333">w3</text><rect x="240" y="0" width="80" height="160" fill="#fff3e0" stroke="#666" stroke-width="1" opacity="0.7"/><path d="M 280 80 L 287.2 76.4 M 280 80 L 287.2 83.6" stroke="#2196F3" stroke-width="2" fill="none"/><circle cx="280" cy="80" r="2.4" fill="#2196F3" opacity="0.5"/><text x="280" y="80" text-anchor="middle" font-family="Arial" font-size="10" fill="#333">w4</text><text x="200" y="490" text-anchor="middle" font-family="Arial" font-size="14" font-weight="bold" fill="#333">W17</text></svg>